<svg xmlns="http://www.w3.org/2000/svg" viewBox="0 0 512 512">
  <!-- グラデーション定義 -->
  <defs>
    <linearGradient id="bgGradient" x1="0%" y1="0%" x2="100%" y2="100%">
      <stop offset="0%" style="stop-color:#6200EE;stop-opacity:1" />
      <stop offset="100%" style="stop-color:#BB86FC;stop-opacity:1" />
    </linearGradient>
    <linearGradient id="circleGradient" x1="0%" y1="0%" x2="100%" y2="100%">
      <stop offset="0%" style="stop-color:#FFFFFF;stop-opacity:0.1" />
      <stop offset="100%" style="stop-color:#FFFFFF;stop-opacity:0.4" />
    </linearGradient>
  </defs>
  
  <!-- 背景 -->
  <rect width="512" height="512" rx="128" fill="url(#bgGradient)" />
  
  <!-- 装飾的な円 -->
  <circle cx="256" cy="256" r="200" fill="url(#circleGradient)" />
  
  <!-- チェックリストのアイコン - 左上に寄せる -->
  <g transform="translate(55, 55) scale(1.8)">
    <!-- リスト背景 -->
    <rect x="30" y="30" width="180" height="200" rx="15" fill="white" fill-opacity="0.95" />
    
    <!-- タスク項目1（完了） -->
    <rect x="60" y="80" width="120" height="8" rx="4" fill="#6200EE" />
    <circle cx="50" cy="84" r="12" stroke="#6200EE" stroke-width="4" fill="white" />
    <path d="M44 84 L50 90 L56 78" stroke="#6200EE" stroke-width="4" fill="none" stroke-linecap="round" stroke-linejoin="round" />
    
    <!-- タスク項目2（完了） -->
    <rect x="60" y="120" width="120" height="8" rx="4" fill="#6200EE" />
    <circle cx="50" cy="124" r="12" stroke="#6200EE" stroke-width="4" fill="white" />
    <path d="M44 124 L50 130 L56 118" stroke="#6200EE" stroke-width="4" fill="none" stroke-linecap="round" stroke-linejoin="round" />
    
    <!-- タスク項目3（未完了） -->
    <rect x="60" y="160" width="120" height="8" rx="4" fill="#ADB5BD" />
    <circle cx="50" cy="164" r="12" stroke="#ADB5BD" stroke-width="4" fill="white" />
    
    <!-- タスク項目4（未完了） -->
    <rect x="60" y="200" width="120" height="8" rx="4" fill="#ADB5BD" />
    <circle cx="50" cy="204" r="12" stroke="#ADB5BD" stroke-width="4" fill="white" />
    
    <!-- ヘッダー部分 -->
    <rect x="30" y="30" width="180" height="30" rx="15" fill="#6200EE" />
    <rect x="50" y="40" width="140" height="10" rx="5" fill="white" fill-opacity="0.8" />
  </g>
  
  <!-- 小さな装飾的な時計マーク - 位置調整 -->
  <g transform="translate(380, 140) scale(1.5)">
    <circle cx="0" cy="0" r="30" fill="white" fill-opacity="0.9" />
    <circle cx="0" cy="0" r="25" fill="none" stroke="#6200EE" stroke-width="4" />
    <line x1="0" y1="0" x2="0" y2="-15" stroke="#6200EE" stroke-width="4" stroke-linecap="round" />
    <line x1="0" y1="0" x2="10" y2="5" stroke="#6200EE" stroke-width="4" stroke-linecap="round" />
  </g>
  
  <!-- 外側のハイライト効果 -->
  <circle cx="120" cy="150" r="15" fill="white" fill-opacity="0.6" />
</svg>
